<svg xmlns="http://www.w3.org/2000/svg" width="480" height="202" viewBox="0 0 480 202" fill="none" role="img" aria-label="Most used languages">
<style>.t{font:600 16px -apple-system,BlinkMacSystemFont,"Segoe UI",Helvetica,Arial,sans-serif;fill:#0366d6}.c{font:400 11px -apple-system,BlinkMacSystemFont,"Segoe UI",Helvetica,Arial,sans-serif;fill:#8b949e}.l{font:400 13px -apple-system,BlinkMacSystemFont,"Segoe UI",Helvetica,Arial,sans-serif;fill:#24292f}.p{font:600 13px -apple-system,BlinkMacSystemFont,"Segoe UI",Helvetica,Arial,sans-serif;fill:#57606a}</style>
<rect x="0.5" y="0.5" width="479" height="201" rx="6" fill="#ffffff" stroke="#e1e4e8"/>
<text x="24" y="34" class="t">Most used languages</text>
<text x="24" y="48" class="c">includes private repos</text>
<clipPath id="bar"><rect x="24" y="70" width="432" height="10" rx="5"/></clipPath>
<g clip-path="url(#bar)">
<rect x="24.0" y="70" width="157.1" height="10" fill="#3572A5"/>
<rect x="181.1" y="70" width="96.7" height="10" fill="#f1e05a"/>
<rect x="277.8" y="70" width="84.5" height="10" fill="#3178c6"/>
<rect x="362.3" y="70" width="54.9" height="10" fill="#41b883"/>
<rect x="417.2" y="70" width="33.7" height="10" fill="#e34c26"/>
<rect x="450.9" y="70" width="2.1" height="10" fill="#563d7c"/>
<rect x="453.0" y="70" width="3.0" height="10" fill="#8b949e"/>
</g>
<circle cx="30" cy="104" r="5" fill="#3572A5"/>
<text x="42" y="108" class="l">Python <tspan class="p">36,4%</tspan></text>
<circle cx="250" cy="104" r="5" fill="#f1e05a"/>
<text x="262" y="108" class="l">JavaScript <tspan class="p">22,4%</tspan></text>
<circle cx="30" cy="132" r="5" fill="#3178c6"/>
<text x="42" y="136" class="l">TypeScript <tspan class="p">19,6%</tspan></text>
<circle cx="250" cy="132" r="5" fill="#41b883"/>
<text x="262" y="136" class="l">Vue <tspan class="p">12,7%</tspan></text>
<circle cx="30" cy="160" r="5" fill="#e34c26"/>
<text x="42" y="164" class="l">HTML <tspan class="p">7,8%</tspan></text>
<circle cx="250" cy="160" r="5" fill="#563d7c"/>
<text x="262" y="164" class="l">CSS <tspan class="p">0,5%</tspan></text>
<circle cx="30" cy="188" r="5" fill="#8b949e"/>
<text x="42" y="192" class="l">Outras <tspan class="p">0,7%</tspan></text>
</svg>
